<?xml version="1.0" encoding="iso-8859-1"?>
<!-- Uploaded to: SVG Repo, www.svgrepo.com, Generator: SVG Repo Mixer Tools -->
<svg height="800px" width="800px" version="1.1" id="Layer_1" xmlns="http://www.w3.org/2000/svg" xmlns:xlink="http://www.w3.org/1999/xlink" 
	 viewBox="0 0 496.159 496.159" xml:space="preserve">
<path style="fill:#EDC92F;" d="M248.083,0.003C111.071,0.003,0,111.063,0,248.085c0,137.001,111.07,248.07,248.083,248.07
	c137.006,0,248.076-111.069,248.076-248.07C496.159,111.062,385.089,0.003,248.083,0.003z"/>
<g>
	<path style="fill:#82725A;" d="M408.381,340.015V214.226l-320.612-1.012v126.8c0,21.741,20.622,21.409,20.622,21.409h278.265
		C409.715,361.424,408.381,340.015,408.381,340.015z"/>
	<path style="fill:#756652;" d="M220.663,257.413v23.75c0,4.813,3.902,8.715,8.715,8.715h37.402c4.813,0,8.715-3.902,8.715-8.715
		v-23.75H220.663z"/>
	<path style="fill:#42392E;" d="M386.319,163.02H108.726c-21.729,0-20.958,21.405-20.958,21.405v44.488l137.952,39.705
		c4.782,0.061,40.666,0.069,45.109,0.024l137.551-40.065v-44.151C408.381,162.029,386.319,163.02,386.319,163.02z"/>
	<path style="fill:#5B4F3F;" d="M386.319,158.52H108.726c-21.729,0-20.958,21.405-20.958,21.405v44.488l137.952,39.705
		c4.782,0.061,40.666,0.069,45.109,0.024l137.551-40.065v-44.151C408.381,157.529,386.319,158.52,386.319,158.52z"/>
	<path style="fill:#3F3F3E;" d="M280.296,115.719h-64.882c-20.402,0-21.067,21.405-21.067,21.405v21.396h21.067v-11.364
		c0-9.696,10.704-10.367,10.704-10.367h43.139c11.376,0,10.708,11.697,10.708,11.697l-0.333,10.034h21.398v-21.731
		C301.029,114.717,280.296,115.719,280.296,115.719z"/>
	<polygon style="fill:#DDBF68;" points="301.117,151.496 279.783,151.496 275.7,157.496 305.2,157.496 	"/>
	<polygon style="fill:#CCAD48;" points="303.45,154.829 277.617,154.829 274.866,158.496 306.033,158.496 	"/>
	<polygon style="fill:#DDBF68;" points="215.45,151.496 194.116,151.496 190.033,157.496 219.533,157.496 	"/>
	<g>
		<polygon style="fill:#CCAD48;" points="217.783,154.829 191.95,154.829 189.2,158.496 220.367,158.496 		"/>
		<path style="fill:#CCAD48;" d="M270.83,277.847c0,3.994-3.238,7.232-7.232,7.232h-31.036c-3.994,0-7.232-3.238-7.232-7.232v-13.56
			h45.5V277.847z"/>
	</g>
	<path style="fill:#DDBF68;" d="M225.33,256.519c0-3.994,3.238-7.232,7.232-7.232h31.036c3.994,0,7.232,3.238,7.232,7.232v13.56
		h-45.5V256.519z"/>
</g>
</svg>